<svg width="0" height="0" class="hidden">
  <symbol xmlns="http://www.w3.org/2000/svg" viewBox="0 0 459 459" id="add">
    <path d="M408 0H51C22.95 0 0 22.95 0 51v357c0 28.05 22.95 51 51 51h357c28.05 0 51-22.95 51-51V51c0-28.05-22.95-51-51-51zm-51 255H255v102h-51V255H102v-51h102V102h51v102h102v51z"></path>
  </symbol>
  <symbol xmlns="http://www.w3.org/2000/svg" viewBox="0 0 51.976 51.976" id="close">
    <path d="M44.373 7.603c-10.137-10.137-26.632-10.138-36.77 0-10.138 10.138-10.137 26.632 0 36.77s26.632 10.138 36.77 0c10.137-10.138 10.137-26.633 0-36.77zm-8.132 28.638a2 2 0 0 1-2.828 0l-7.425-7.425-7.778 7.778a2 2 0 1 1-2.828-2.828l7.778-7.778-7.425-7.425a2 2 0 1 1 2.828-2.828l7.425 7.425 7.071-7.071a2 2 0 1 1 2.828 2.828l-7.071 7.071 7.425 7.425a2 2 0 0 1 0 2.828z"></path>
  </symbol>
  <symbol viewBox="-63 0 512 512" xmlns="http://www.w3.org/2000/svg" id="delete">
    <path d="M357.996 145a7.574 7.574 0 0 0-7.574 7.574v291.262c0 29.234-23.785 53.016-53.02 53.016H89.372c-29.235 0-53.017-23.782-53.017-53.016V152.574c0-4.183-3.39-7.574-7.574-7.574s-7.574 3.39-7.574 7.574v291.262c0 37.586 30.578 68.164 68.164 68.164h208.031c37.59 0 68.168-30.578 68.168-68.164V152.574a7.574 7.574 0 0 0-7.574-7.574zm1.008-104.605h-90.246l-12.52-25.043C251.504 5.882 241.984 0 231.398 0h-76.02c-10.589 0-20.105 5.883-24.839 15.352l-12.52 25.043H27.77C12.458 40.395 0 52.852 0 68.165V96.44c0 15.313 12.457 27.774 27.77 27.774h331.238c15.312 0 27.77-12.461 27.77-27.774V68.164c0-15.312-12.462-27.77-27.774-27.77zm-214.918-18.27a12.556 12.556 0 0 1 11.293-6.977h76.02c4.812 0 9.14 2.672 11.292 6.977l9.133 18.27h-116.87zm227.543 74.316c0 6.961-5.664 12.625-12.621 12.625H27.77c-6.961 0-12.622-5.664-12.622-12.625V68.164c0-6.96 5.664-12.621 12.622-12.621h331.238c6.96 0 12.62 5.664 12.62 12.621zm0 0"></path>
    <path d="M314.066 421.617V232.773c0-15.312-12.457-27.77-27.77-27.77-15.316 0-27.773 12.458-27.773 27.77v188.844c0 15.313 12.457 27.77 27.774 27.77 15.312.004 27.77-12.457 27.77-27.77zm-40.394 0V232.773c0-6.96 5.664-12.625 12.625-12.625s12.621 5.665 12.621 12.625v188.844c0 6.961-5.664 12.621-12.621 12.621-6.961.004-12.625-5.66-12.625-12.62zm-145.418 0V232.773c0-15.312-12.461-27.77-27.774-27.77s-27.77 12.458-27.77 27.77v188.844c0 15.313 12.458 27.77 27.77 27.77s27.774-12.457 27.774-27.77zm-40.399 0V232.773c0-6.96 5.665-12.625 12.625-12.625 6.961 0 12.622 5.665 12.622 12.625v188.844c0 6.961-5.66 12.621-12.622 12.621-6.96.004-12.625-5.66-12.625-12.62zm133.305 0V232.773c0-15.312-12.46-27.77-27.773-27.77s-27.77 12.458-27.77 27.77v188.844c0 15.313 12.457 27.77 27.77 27.77s27.773-12.457 27.773-27.77zm-40.394 0V232.773c0-6.96 5.664-12.625 12.62-12.625 6.962 0 12.626 5.665 12.626 12.625v188.844c0 6.961-5.664 12.621-12.625 12.621-6.961.004-12.621-5.66-12.621-12.62zm0 0"></path>
  </symbol>
  <symbol viewBox="0 -1 401.523 401" xmlns="http://www.w3.org/2000/svg" id="edit">
    <path d="M370.59 250.973c-5.524 0-10 4.476-10 10v88.789c-.02 16.562-13.438 29.984-30 30H50c-16.563-.016-29.98-13.438-30-30V89.172c.02-16.559 13.438-29.98 30-30h88.79c5.523 0 10-4.477 10-10 0-5.52-4.477-10-10-10H50c-27.602.031-49.969 22.398-50 50v260.594c.031 27.601 22.398 49.968 50 50h280.59c27.601-.032 49.969-22.399 50-50v-88.793c0-5.524-4.477-10-10-10zm0 0"></path>
    <path d="M376.629 13.441c-17.574-17.574-46.067-17.574-63.64 0L134.581 191.848a9.997 9.997 0 0 0-2.566 4.402l-23.461 84.7a9.997 9.997 0 0 0 12.304 12.308l84.7-23.465a9.997 9.997 0 0 0 4.402-2.566l178.402-178.41c17.547-17.587 17.547-46.055 0-63.641zM156.37 198.348L302.383 52.332l47.09 47.09-146.016 146.016zm-9.406 18.875l37.62 37.625-52.038 14.418zM374.223 74.676L363.617 85.28l-47.094-47.094 10.61-10.605c9.762-9.762 25.59-9.762 35.351 0l11.739 11.734c9.746 9.774 9.746 25.59 0 35.36zm0 0"></path>
  </symbol>
  <symbol viewBox="-116 0 512 512" xmlns="http://www.w3.org/2000/svg" id="information">
    <path d="M138 120c-33.086 0-60-26.914-60-60s26.914-60 60-60 60 26.914 60 60-26.914 60-60 60zm0-80c-11.027 0-20 8.973-20 20s8.973 20 20 20 20-8.973 20-20-8.973-20-20-20zm142 412c0-33.086-26.914-60-60-60h-40c-11.047 0-20 8.953-20 20s8.953 20 20 20h40c11.027 0 20 8.973 20 20s-8.973 20-20 20H60c-11.027 0-20-8.973-20-20s8.973-20 20-20h40c11.047 0 20-8.953 20-20V258c0-11.047-8.953-20-20-20H60c-11.027 0-20-8.973-20-20s8.973-20 20-20h80c11.027 0 20 8.973 20 20v93c0 11.047 8.953 20 20 20s20-8.953 20-20v-93c0-33.086-26.914-60-60-60H60c-33.086 0-60 26.914-60 60s26.914 60 60 60h20v114H60c-33.086 0-60 26.914-60 60s26.914 60 60 60h160c33.086 0 60-26.914 60-60zm0 0"></path>
  </symbol>
   <symbol viewBox="0 0 512 512" xmlns="http://www.w3.org/2000/svg" id="decrease">
    <path d="M511.281 256.36L255.641 512 0 256.36h115.281V150.21h40.055v146.204H96.703l158.938 158.938 158.937-158.938h-58.96V150.211h40.054v106.148zM155.336 0H115.28v40.055h40.055zm240.336 0h-40.055v40.055h40.055zM155.336 70.098H115.28v50.07h40.055zm240.336 0h-40.055v50.07h40.055zM255.379 282.125c-11.149 0-20.93-10.105-20.93-21.625h-40.058c0 26.414 17.437 49.574 41.058 58.145v30.843h40.055v-30.797c8.535-3.05 16.402-8.039 23.066-14.761 11.602-11.707 17.993-27.051 17.993-43.2 0-15.66-6.512-29.335-19.352-40.648-9.398-8.277-20.906-14.273-32.035-20.074l-.54-.281c-18.894-9.848-25.179-15.012-25.179-26.168 0-7.504 7.59-14.336 15.926-14.336 8.191 0 15.117 6.422 15.117 14.02h40.055c0-23.231-15.028-43.083-36.051-50.723V90.125h-40.055v33.152c-20.328 8.243-35.05 27.946-35.05 50.282 0 37.336 29.25 52.582 46.726 61.687l.54.281c20.284 10.575 29.843 16.508 29.843 25.203 0 11.399-9.875 21.395-21.13 21.395zm0 0"></path>
  </symbol>
  <symbol viewBox="0 0 512 512" xmlns="http://www.w3.org/2000/svg" id="rising">
    <path d="M316.563 361.152c0 16.153-6.391 31.493-17.993 43.2-6.664 6.726-14.53 11.714-23.066 14.765v30.797h-40.055V419.07c-23.62-8.57-41.058-31.734-41.058-58.148h40.058c0 11.523 9.781 21.629 20.93 21.629 11.254 0 21.129-9.996 21.129-21.395 0-8.699-9.559-14.629-29.848-25.203l-.535-.281c-17.477-9.11-46.727-24.356-46.727-61.692 0-22.335 14.72-42.035 35.051-50.277v-33.152h40.055v32.394c21.023 7.637 36.05 27.492 36.05 50.723H270.5c0-7.602-6.926-14.02-15.121-14.02-8.332 0-15.926 6.832-15.926 14.332 0 11.16 6.29 16.32 25.184 26.172l.539.278c11.129 5.8 22.637 11.8 32.035 20.078 12.84 11.312 19.352 24.988 19.352 40.644zM255.64 0L0 255.64h115.281v106.15h40.055V215.585H96.703L255.641 56.648l158.937 158.938h-58.96v146.203h40.054V255.641h115.61zM115.28 512h40.055v-40.055H115.28zm240.336 0h40.055v-40.055h-40.055zM115.28 441.902h40.055v-50.07H115.28zm240.336 0h40.055v-50.07h-40.055zm0 0"></path>
  </symbol>
    <symbol xmlns="http://www.w3.org/2000/svg" viewBox="0 0 548.176 548.176" id="picture">
    <path d="M534.75 68.238c-8.945-8.945-19.694-13.417-32.261-13.417H45.681c-12.562 0-23.313 4.471-32.264 13.417C4.471 77.185 0 87.936 0 100.499v347.173c0 12.566 4.471 23.318 13.417 32.264 8.951 8.946 19.702 13.419 32.264 13.419h456.815c12.56 0 23.312-4.473 32.258-13.419 8.945-8.945 13.422-19.697 13.422-32.264V100.499c0-12.563-4.477-23.314-13.426-32.261zm-23.127 379.434c0 2.478-.899 4.613-2.707 6.427-1.81 1.8-3.952 2.703-6.427 2.703H45.681c-2.473 0-4.615-.903-6.423-2.703-1.807-1.813-2.712-3.949-2.712-6.427V100.495c0-2.474.902-4.611 2.712-6.423 1.809-1.803 3.951-2.708 6.423-2.708h456.815c2.471 0 4.613.905 6.42 2.708 1.801 1.812 2.707 3.949 2.707 6.423v347.177z"></path>
    <path d="M127.91 237.541c15.229 0 28.171-5.327 38.831-15.987 10.657-10.66 15.987-23.601 15.987-38.826 0-15.23-5.333-28.171-15.987-38.832-10.66-10.656-23.603-15.986-38.831-15.986-15.227 0-28.168 5.33-38.828 15.986-10.656 10.66-15.986 23.601-15.986 38.832 0 15.225 5.327 28.169 15.986 38.826 10.66 10.657 23.601 15.987 38.828 15.987zm82.224 82.224l-45.682-45.677-91.36 91.359v54.82h401.993V292.36l-118.77-118.773z"></path>
  </symbol>
  <symbol xmlns="http://www.w3.org/2000/svg" viewBox="0 0 384 384" id="confirmation">
    <path d="M275.312 140.688c-6.24-6.248-16.384-6.248-22.624 0L184 209.368l-28.688-28.68c-6.24-6.248-16.384-6.248-22.624 0-6.248 6.248-6.248 16.376 0 22.624l40 40C175.808 246.44 179.904 248 184 248s8.192-1.56 11.312-4.688l80-80c6.248-6.248 6.248-16.376 0-22.624z"></path>
    <path d="M368 176c-8.832 0-16 7.168-16 16 0 88.224-71.776 160-160 160S32 280.224 32 192 103.776 32 192 32c42.952 0 83.272 16.784 113.544 47.264 6.216 6.28 16.352 6.312 22.624.08 6.272-6.224 6.304-16.352.08-22.624C291.928 20.144 243.536 0 192 0 86.128 0 0 86.128 0 192s86.128 192 192 192 192-86.128 192-192c0-8.832-7.168-16-16-16z"></path>
  </symbol>
    <symbol xmlns="http://www.w3.org/2000/svg" viewBox="0 0 485.213 485.212" id="calendar">
    <path d="M60.652 75.816V15.163C60.652 6.781 67.433 0 75.817 0c8.38 0 15.161 6.781 15.161 15.163v60.653c0 8.38-6.781 15.161-15.161 15.161-8.384.001-15.165-6.781-15.165-15.161zm257.772 15.162c8.378 0 15.163-6.781 15.163-15.161V15.163C333.587 6.781 326.802 0 318.424 0c-8.382 0-15.168 6.781-15.168 15.163v60.653c0 8.38 6.786 15.162 15.168 15.162zm166.788 272.928c0 66.996-54.312 121.307-121.303 121.307-66.986 0-121.302-54.311-121.302-121.307 0-66.986 54.315-121.3 121.302-121.3 66.991 0 121.303 54.313 121.303 121.3zm-30.322 0c0-50.161-40.81-90.976-90.98-90.976-50.166 0-90.976 40.814-90.976 90.976 0 50.171 40.81 90.98 90.976 90.98 50.17 0 90.98-40.809 90.98-90.98zM121.305 181.955H60.652v60.651h60.653v-60.651zM60.652 333.584h60.653V272.93H60.652v60.654zm90.977-90.978h60.654v-60.651h-60.654v60.651zm0 90.978h60.654V272.93h-60.654v60.654zM30.328 360.891V151.628H363.91v60.653h30.327V94c0-18.421-14.692-33.349-32.843-33.349h-12.647v15.166c0 16.701-13.596 30.325-30.322 30.325-16.731 0-30.326-13.624-30.326-30.325V60.651H106.14v15.166c0 16.701-13.593 30.325-30.322 30.325-16.733 0-30.327-13.624-30.327-30.325V60.651H32.859C14.707 60.651.001 75.579.001 94v266.892c0 18.36 14.706 33.346 32.858 33.346h179.424v-30.331H32.859c-1.374-.001-2.531-1.42-2.531-3.016zm272.928-118.285v-60.651h-60.648v60.651h60.648zm106.143 121.3h-45.49v-45.49c0-8.377-6.781-15.158-15.163-15.158s-15.159 6.781-15.159 15.158v60.658c0 8.378 6.777 15.163 15.159 15.163h60.653c8.382 0 15.163-6.785 15.163-15.163 0-8.382-6.781-15.168-15.163-15.168z"></path>
  </symbol>
   <symbol xmlns="http://www.w3.org/2000/svg" viewBox="0 0 508 508" id="money-decrease">
    <path d="M450.6 166.8v29.3l-98.3-98.3-81.9 82L95.9 5.3 84.3 16.9l186.1 186 81.9-81.9 86.8 86.7h-29.4v16.4H467v-57.3z"></path>
    <path d="M491.6 486.3V371.6h-81.9v114.7h-16.4V240.5h-81.9v245.8H295V289.7h-82v196.6h-16.4V175h-81.9v311.4H98.3V125.8H16.4v360.5H0v16.4h508v-16.4h-16.4zm-409.6 0H32.8V142.2H82v344.1zm98.3 0h-49.2v-295h49.2v295zm98.3.1h-49.2V306.1h49.2v180.3zm98.3-.1h-49.2V256.9h49.2v229.4zm98.4 0h-49.2V388h49.2v98.3z"></path>
  </symbol>
  <symbol xmlns="http://www.w3.org/2000/svg" viewBox="0 0 508 508" id="money-increase">
    <path d="M376.9 8.2v16.4h29.4L237.6 193.3l-81.9-82L51.6 215.4 63.1 227l92.6-92.5 81.9 81.9L417.9 36.2v29.3h16.4V8.2z"></path>
    <path d="M491.6 483.4V122.9h-81.9v360.5h-16.4V172.1h-81.9v311.4H295V286.8h-82v196.6h-16.4V237.6h-81.9v245.8H98.3V368.7H16.4v114.7H0v16.4h508v-16.4h-16.4zm-409.6 0H32.8v-98.3H82v98.3zm98.3 0h-49.2V254h49.2v229.4zm98.3.1h-49.2V303.2h49.2v180.3zm98.3 0h-49.2v-295h49.2v295zm98.4-.1h-49.2V139.3h49.2v344.1z"></path>
  </symbol>
  <symbol xmlns="http://www.w3.org/2000/svg" viewBox="0 0 496 496" id="purposes">
    <path d="M496 248C496 111.256 384.744 0 248 0c-42.872 0-84.64 11.104-121.672 32H96V0H48v101.496C16.64 144.216 0 194.776 0 248c0 136.752 111.256 248 248 248 30.472 0 60.216-5.48 88.416-16.248C352.512 489.984 371.552 496 392 496c24.944 0 49.072-8.968 67.936-25.248L449.48 458.64A87.978 87.978 0 0 1 392 480c-48.52 0-88-39.48-88-88s39.48-88 88-88 88 39.48 88 88c0 20.28-6.704 39.344-19.4 55.128l12.472 10.032C487.856 438.768 496 415.632 496 392c0-20.464-6.024-39.504-16.264-55.608C490.496 308.184 496 278.472 496 248zM128 80h16v112h-16V80zM96 48h16v144H96V48zM64 16h16v176H64V16zm176 463.8C118.432 475.648 20.352 377.568 16.2 256H240v223.8zm0-239.8H16.32c1.304-38.944 12.12-76.16 31.68-109.336V208h176v-80h-32V96h-32V64h-32V49.536c33.848-20.512 72.312-31.896 112-33.256V240zm-80-48v-80h16v80h-16zm32 0v-48h16v48h-16zm287.8 48h-68.488l58.832-58.832c5.648 18.728 8.96 38.448 9.656 58.832zm-40.312-122.8l-89.352 89.352 11.312 11.312 86.8-86.8a231.703 231.703 0 0 1 16.088 33.288L388.688 240h-49.376l10.344-10.344-11.312-11.312L316.688 240h-49.376L417.496 89.816c7.984 8.56 15.352 17.696 21.992 27.384zM256 16.2c20.384.696 40.104 4.008 58.832 9.656L256 84.688V16.2zm0 163.112l97.224-97.224-11.312-11.312L256 156.688v-49.376l75.648-75.648a230.026 230.026 0 0 1 33.288 16.088L352.048 60.64l11.312 11.312 15.44-15.44c9.688 6.64 18.824 14 27.384 21.992L256 228.688v-49.376zM392 288c-57.344 0-104 46.656-104 104 0 30.088 12.92 57.144 33.408 76.152-21.08 7.032-43.008 10.912-65.408 11.664V256h223.816c-.752 22.392-4.664 44.304-11.688 65.384C449.12 300.904 422.072 288 392 288z"></path>
    <path d="M98.378 386.342l96-96 11.314 11.313-96 96zM184 352c-13.232 0-24 10.768-24 24s10.768 24 24 24 24-10.768 24-24-10.768-24-24-24zm0 32c-4.408 0-8-3.584-8-8s3.592-8 8-8 8 3.584 8 8-3.592 8-8 8zm-64-96c-13.232 0-24 10.768-24 24s10.768 24 24 24 24-10.768 24-24-10.768-24-24-24zm0 32c-4.408 0-8-3.584-8-8s3.592-8 8-8 8 3.584 8 8-3.592 8-8 8zm272 64c-8.824 0-16-7.176-16-16s7.176-16 16-16 16 7.176 16 16h16c0-14.872-10.24-27.288-24-30.864V320h-16v17.136c-13.76 3.576-24 15.992-24 30.864 0 17.648 14.352 32 32 32 8.824 0 16 7.176 16 16s-7.176 16-16 16-16-7.176-16-16h-16c0 14.872 10.24 27.288 24 30.864V464h16v-17.136c13.76-3.576 24-15.992 24-30.864 0-17.648-14.352-32-32-32zm56 0h16v16h-16zm-128 0h16v16h-16z"></path>
  </symbol>
</svg>

