<svg width="0" height="0" class="hidden">

  <symbol viewBox="-63 0 512 512" xmlns="http://www.w3.org/2000/svg" id="delete">
    <path d="M357.996 145a7.574 7.574 0 0 0-7.574 7.574v291.262c0 29.234-23.785 53.016-53.02 53.016H89.372c-29.235 0-53.017-23.782-53.017-53.016V152.574c0-4.183-3.39-7.574-7.574-7.574s-7.574 3.39-7.574 7.574v291.262c0 37.586 30.578 68.164 68.164 68.164h208.031c37.59 0 68.168-30.578 68.168-68.164V152.574a7.574 7.574 0 0 0-7.574-7.574zm1.008-104.605h-90.246l-12.52-25.043C251.504 5.882 241.984 0 231.398 0h-76.02c-10.589 0-20.105 5.883-24.839 15.352l-12.52 25.043H27.77C12.458 40.395 0 52.852 0 68.165V96.44c0 15.313 12.457 27.774 27.77 27.774h331.238c15.312 0 27.77-12.461 27.77-27.774V68.164c0-15.312-12.462-27.77-27.774-27.77zm-214.918-18.27a12.556 12.556 0 0 1 11.293-6.977h76.02c4.812 0 9.14 2.672 11.292 6.977l9.133 18.27h-116.87zm227.543 74.316c0 6.961-5.664 12.625-12.621 12.625H27.77c-6.961 0-12.622-5.664-12.622-12.625V68.164c0-6.96 5.664-12.621 12.622-12.621h331.238c6.96 0 12.62 5.664 12.62 12.621zm0 0"></path>
    <path d="M314.066 421.617V232.773c0-15.312-12.457-27.77-27.77-27.77-15.316 0-27.773 12.458-27.773 27.77v188.844c0 15.313 12.457 27.77 27.774 27.77 15.312.004 27.77-12.457 27.77-27.77zm-40.394 0V232.773c0-6.96 5.664-12.625 12.625-12.625s12.621 5.665 12.621 12.625v188.844c0 6.961-5.664 12.621-12.621 12.621-6.961.004-12.625-5.66-12.625-12.62zm-145.418 0V232.773c0-15.312-12.461-27.77-27.774-27.77s-27.77 12.458-27.77 27.77v188.844c0 15.313 12.458 27.77 27.77 27.77s27.774-12.457 27.774-27.77zm-40.399 0V232.773c0-6.96 5.665-12.625 12.625-12.625 6.961 0 12.622 5.665 12.622 12.625v188.844c0 6.961-5.66 12.621-12.622 12.621-6.96.004-12.625-5.66-12.625-12.62zm133.305 0V232.773c0-15.312-12.46-27.77-27.773-27.77s-27.77 12.458-27.77 27.77v188.844c0 15.313 12.457 27.77 27.77 27.77s27.773-12.457 27.773-27.77zm-40.394 0V232.773c0-6.96 5.664-12.625 12.62-12.625 6.962 0 12.626 5.665 12.626 12.625v188.844c0 6.961-5.664 12.621-12.625 12.621-6.961.004-12.621-5.66-12.621-12.62zm0 0"></path>
  </symbol>
  <symbol viewBox="0 -1 401.523 401" xmlns="http://www.w3.org/2000/svg" id="edit">
    <path d="M370.59 250.973c-5.524 0-10 4.476-10 10v88.789c-.02 16.562-13.438 29.984-30 30H50c-16.563-.016-29.98-13.438-30-30V89.172c.02-16.559 13.438-29.98 30-30h88.79c5.523 0 10-4.477 10-10 0-5.52-4.477-10-10-10H50c-27.602.031-49.969 22.398-50 50v260.594c.031 27.601 22.398 49.968 50 50h280.59c27.601-.032 49.969-22.399 50-50v-88.793c0-5.524-4.477-10-10-10zm0 0"></path>
    <path d="M376.629 13.441c-17.574-17.574-46.067-17.574-63.64 0L134.581 191.848a9.997 9.997 0 0 0-2.566 4.402l-23.461 84.7a9.997 9.997 0 0 0 12.304 12.308l84.7-23.465a9.997 9.997 0 0 0 4.402-2.566l178.402-178.41c17.547-17.587 17.547-46.055 0-63.641zM156.37 198.348L302.383 52.332l47.09 47.09-146.016 146.016zm-9.406 18.875l37.62 37.625-52.038 14.418zM374.223 74.676L363.617 85.28l-47.094-47.094 10.61-10.605c9.762-9.762 25.59-9.762 35.351 0l11.739 11.734c9.746 9.774 9.746 25.59 0 35.36zm0 0"></path>
  </symbol>
  <symbol viewBox="-116 0 512 512" xmlns="http://www.w3.org/2000/svg" id="information">
    <path d="M138 120c-33.086 0-60-26.914-60-60s26.914-60 60-60 60 26.914 60 60-26.914 60-60 60zm0-80c-11.027 0-20 8.973-20 20s8.973 20 20 20 20-8.973 20-20-8.973-20-20-20zm142 412c0-33.086-26.914-60-60-60h-40c-11.047 0-20 8.953-20 20s8.953 20 20 20h40c11.027 0 20 8.973 20 20s-8.973 20-20 20H60c-11.027 0-20-8.973-20-20s8.973-20 20-20h40c11.047 0 20-8.953 20-20V258c0-11.047-8.953-20-20-20H60c-11.027 0-20-8.973-20-20s8.973-20 20-20h80c11.027 0 20 8.973 20 20v93c0 11.047 8.953 20 20 20s20-8.953 20-20v-93c0-33.086-26.914-60-60-60H60c-33.086 0-60 26.914-60 60s26.914 60 60 60h20v114H60c-33.086 0-60 26.914-60 60s26.914 60 60 60h160c33.086 0 60-26.914 60-60zm0 0"></path>
  </symbol>
   <symbol viewBox="0 0 512 512" xmlns="http://www.w3.org/2000/svg" id="decrease">
    <path d="M511.281 256.36L255.641 512 0 256.36h115.281V150.21h40.055v146.204H96.703l158.938 158.938 158.937-158.938h-58.96V150.211h40.054v106.148zM155.336 0H115.28v40.055h40.055zm240.336 0h-40.055v40.055h40.055zM155.336 70.098H115.28v50.07h40.055zm240.336 0h-40.055v50.07h40.055zM255.379 282.125c-11.149 0-20.93-10.105-20.93-21.625h-40.058c0 26.414 17.437 49.574 41.058 58.145v30.843h40.055v-30.797c8.535-3.05 16.402-8.039 23.066-14.761 11.602-11.707 17.993-27.051 17.993-43.2 0-15.66-6.512-29.335-19.352-40.648-9.398-8.277-20.906-14.273-32.035-20.074l-.54-.281c-18.894-9.848-25.179-15.012-25.179-26.168 0-7.504 7.59-14.336 15.926-14.336 8.191 0 15.117 6.422 15.117 14.02h40.055c0-23.231-15.028-43.083-36.051-50.723V90.125h-40.055v33.152c-20.328 8.243-35.05 27.946-35.05 50.282 0 37.336 29.25 52.582 46.726 61.687l.54.281c20.284 10.575 29.843 16.508 29.843 25.203 0 11.399-9.875 21.395-21.13 21.395zm0 0"></path>
  </symbol>
  <symbol viewBox="0 0 512 512" xmlns="http://www.w3.org/2000/svg" id="rising">
    <path d="M316.563 361.152c0 16.153-6.391 31.493-17.993 43.2-6.664 6.726-14.53 11.714-23.066 14.765v30.797h-40.055V419.07c-23.62-8.57-41.058-31.734-41.058-58.148h40.058c0 11.523 9.781 21.629 20.93 21.629 11.254 0 21.129-9.996 21.129-21.395 0-8.699-9.559-14.629-29.848-25.203l-.535-.281c-17.477-9.11-46.727-24.356-46.727-61.692 0-22.335 14.72-42.035 35.051-50.277v-33.152h40.055v32.394c21.023 7.637 36.05 27.492 36.05 50.723H270.5c0-7.602-6.926-14.02-15.121-14.02-8.332 0-15.926 6.832-15.926 14.332 0 11.16 6.29 16.32 25.184 26.172l.539.278c11.129 5.8 22.637 11.8 32.035 20.078 12.84 11.312 19.352 24.988 19.352 40.644zM255.64 0L0 255.64h115.281v106.15h40.055V215.585H96.703L255.641 56.648l158.937 158.938h-58.96v146.203h40.054V255.641h115.61zM115.28 512h40.055v-40.055H115.28zm240.336 0h40.055v-40.055h-40.055zM115.28 441.902h40.055v-50.07H115.28zm240.336 0h40.055v-50.07h-40.055zm0 0"></path>
  </symbol>
</svg>

