<svg width="0" height="0" class="hidden">
  <symbol xmlns="http://www.w3.org/2000/svg" viewBox="0 0 32.75 32.75" id="calendar">
    <path d="M9.915 25.666h3.36v-14.16h-2.36c-.04.227-.117.47-.23.73s-.29.5-.53.72c-.24.22-.563.403-.97.55-.407.147-.93.22-1.57.22h-.42v2.12h2.72v9.82zm11.48.279c1.573 0 2.74-.394 3.5-1.18.76-.787 1.141-2.08 1.141-3.881 0-1.72-.297-2.97-.891-3.75-.593-.779-1.537-1.17-2.83-1.17-.227 0-.457.023-.689.07a2.956 2.956 0 0 0-1.25.58c-.173.14-.307.297-.4.47l-.039-.04.16-2.66h5.359v-2.6h-7.939l-.44 7.66h3.12c.053-.413.197-.703.43-.87s.503-.25.811-.25c.439 0 .756.2.949.6.193.4.29 1.021.29 1.86 0 .974-.083 1.724-.25 2.25-.167.525-.517.79-1.05.79-.24 0-.439-.05-.6-.15-.16-.1-.283-.231-.371-.399a1.863 1.863 0 0 1-.18-.569 4.449 4.449 0 0 1-.05-.681v-.521h-3.239v.521c0 1.254.362 2.221 1.09 2.899.724.681 1.848 1.021 3.368 1.021zM17.01 5.502a.312.312 0 0 0-.104.129.52.52 0 0 0-.033.2c0 .118.021.21.066.278a.214.214 0 0 0 .192.102.38.38 0 0 0 .25-.088c.072-.059.106-.165.106-.319 0-.124.002-.227.004-.308l.002-.215c-.139.073-.245.12-.316.141a.448.448 0 0 0-.167.08z"></path>
    <path d="M29.375 1.25h-1.123c.029-.093.059-.186.059-.289a.963.963 0 0 0-1.924 0c0 .104.028.196.059.289h-3.68c.029-.093.059-.186.059-.289a.963.963 0 0 0-1.925 0c0 .104.029.196.06.289h-3.681c.029-.093.058-.186.058-.289a.961.961 0 0 0-1.922 0c0 .104.028.196.058.289h-3.681c.029-.093.059-.186.059-.289a.962.962 0 0 0-1.923 0c0 .104.028.196.058.289h-3.68a.93.93 0 0 0 .059-.289.961.961 0 0 0-1.923 0c0 .104.028.196.058.289H3.375A2.752 2.752 0 0 0 .625 4v26a2.751 2.751 0 0 0 2.75 2.75H26.27l5.855-5.855V4a2.752 2.752 0 0 0-2.75-2.75zm-9.878 2.524l.362 2.085h.012l.347-2.085h.892l-.803 2.998c-.052.19-.105.347-.162.47s-.125.219-.209.289a.714.714 0 0 1-.297.146 1.908 1.908 0 0 1-.434.041h-.204a1.454 1.454 0 0 1-.181-.011V7.08a1.24 1.24 0 0 0 .219.022.411.411 0 0 0 .231-.068c.069-.046.117-.133.143-.261l-.841-2.998.925-.001zm-2.069.586c-.044-.053-.115-.08-.214-.08-.125 0-.209.036-.253.107a.61.61 0 0 0-.072.3h-.792c.003-.209.034-.376.091-.501a.715.715 0 0 1 .245-.297.986.986 0 0 1 .355-.151c.13-.027.289-.041.476-.041.367 0 .635.067.803.201.168.134.254.36.254.679v1.529c0 .113.004.233.014.357.009.125.04.22.091.286h-.858c-.019-.052-.029-.106-.035-.165s-.01-.117-.014-.176h-.013a.696.696 0 0 1-.28.308.806.806 0 0 1-.418.11c-.253 0-.449-.07-.585-.212-.138-.141-.207-.373-.207-.695 0-.177.033-.331.099-.465a.666.666 0 0 1 .264-.295c.11-.062.239-.109.389-.143.148-.034.284-.066.409-.099.066-.019.12-.036.162-.053a.267.267 0 0 0 .099-.062.17.17 0 0 0 .047-.091.654.654 0 0 0 .012-.138.34.34 0 0 0-.069-.213zm-5.527-1.537h1.353l.484 2.579h.011l.467-2.579h1.336V6.75h-.857V3.692h-.011l-.6 3.058h-.715l-.633-3.058h-.011V6.75H11.9l.001-3.927zm18.724 23.45l-.311.311h-2.355c-1.102 0-2 .898-2 2v2.355l-.311.311H3.375c-.689 0-1.25-.561-1.25-1.25V9h28.5v17.273z"></path>
  </symbol>
</svg>
